<?xml version="1.0" encoding="UTF-8"?>
<svg width="458px" height="62px" viewBox="0 0 458 62" version="1.1" xmlns="http://www.w3.org/2000/svg" xmlns:xlink="http://www.w3.org/1999/xlink">
    <!-- Generator: Sketch 55.2 (78181) - https://sketchapp.com -->
    <title>Logo/normal</title>
    <desc>Created with Sketch.</desc>
    <defs>
        <polygon id="path-1" points="0.00263976945 0.478851064 27.4166455 0.478851064 27.4166455 15.7506383 0.00263976945 15.7506383"></polygon>
        <polygon id="path-3" points="0.260017291 0.204468085 155.694922 0.204468085 155.694922 15.7506383 0.260017291 15.7506383"></polygon>
    </defs>
    <g id="Symbols" stroke="none" stroke-width="1" fill="none" fill-rule="evenodd">
        <g id="Wrapper/footer/desktop" transform="translate(-140.000000, -374.000000)">
            <g id="Wrapper/footer">
                <g id="Group" transform="translate(140.000000, 373.629348)">
                    <g id="Logo/inverse-web">
                        <g id="FTTC_logo_1color_purple">
                            <path d="M269.400352,5.76468085 L281.831026,5.76468085 L281.831026,3.85323404 L253.904905,3.85323404 L253.904905,5.76468085 L266.339539,5.76468085 L266.339539,35.8874468 L269.400352,35.8874468 L269.400352,5.76468085 Z M321.873689,23.223617 C321.873689,26.1125532 321.873689,29.1729787 319.388346,31.2968085 C317.027072,33.3348936 312.308484,34.3994468 308.611487,34.3994468 C304.91449,34.3994468 300.194582,33.3348936 297.834628,31.2968085 C295.349285,29.1729787 295.349285,26.1125532 295.349285,23.223617 L295.349285,3.85323404 L292.289793,3.85323404 L292.289793,23.8198723 C292.289793,27.0913617 292.289793,29.8945532 295.540669,32.5724255 C298.792865,35.0365957 303.76619,36.3095745 308.611487,36.3095745 C313.458104,36.3095745 318.431429,35.0365957 321.682305,32.5724255 C324.935821,29.8945532 324.935821,27.0913617 324.935821,23.8198723 L324.935821,3.85323404 L321.873689,3.85323404 L321.873689,23.223617 Z M350.880795,5.76468085 L363.315429,5.76468085 L363.315429,3.85323404 L335.385349,3.85323404 L335.385349,5.76468085 L347.818663,5.76468085 L347.818663,35.8874468 L350.880795,35.8874468 L350.880795,5.76468085 Z M384.925902,5.76468085 L397.360536,5.76468085 L397.360536,3.85323404 L369.433095,3.85323404 L369.433095,5.76468085 L381.867729,5.76468085 L381.867729,35.8874468 L384.925902,35.8874468 L384.925902,5.76468085 Z M411.323597,3.85323404 L408.262784,3.85323404 L408.262784,35.8874468 L423.565527,35.8874468 L423.565527,33.9733617 L411.323597,33.9733617 L411.323597,3.85323404 Z M457.419251,5.76468085 L457.419251,3.85323404 L434.463816,3.85323404 L434.463816,35.8874468 L457.419251,35.8874468 L457.419251,33.9733617 L437.524628,33.9733617 L437.524628,19.3162979 L456.911095,19.3162979 L456.911095,17.4048511 L437.524628,17.4048511 L437.524628,5.76468085 L457.419251,5.76468085 L457.419251,5.76468085 Z" id="Fill-1" fill="#FFFFFF"></path>
                            <polyline id="Fill-2" fill="#FFFFFF" points="23.6483746 7.0627234 23.6483746 3.40868085 0.372207493 3.40868085 0.372207493 35.4428936 6.36712392 35.4428936 6.36712392 19.7225957 23.0742248 19.7225957 23.0742248 16.0698723 6.36712392 16.0698723 6.36712392 7.0627234 23.6483746 7.0627234"></polyline>
                            <path d="M5.99491643,7.0627234 L5.99491643,16.4431915 L23.0742248,16.4431915 L22.6993775,16.0698723 L22.6993775,19.7225957 L23.0742248,19.3492766 L5.99491643,19.3492766 L5.99491643,35.4428936 L6.36712392,35.0682553 L0.372207493,35.0682553 L0.747054755,35.4428936 L0.747054755,3.40868085 L0.372207493,3.78331915 L23.6483746,3.78331915 L23.2748473,3.40868085 L23.2748473,7.0627234 L23.6483746,6.68940426 L5.99491643,6.68940426 L5.99491643,7.0627234 Z M24.0205821,7.0627234 L24.0205821,3.0353617 L0,3.0353617 L0,35.8148936 L6.7406513,35.8148936 L6.7406513,19.7225957 L6.36712392,20.0959149 L23.4477522,20.0959149 L23.4477522,15.6965532 L6.36712392,15.6965532 L6.7406513,16.0698723 L6.7406513,7.0627234 L6.36712392,7.43604255 L24.0205821,7.43604255 L24.0205821,7.0627234 L24.0205821,7.0627234 Z" id="Fill-3" fill="#FFFFFF"></path>
                            <path d="M45.2746859,21.5074043 C52.2212392,20.9546809 56.8157579,17.1317872 56.8157579,12.5437872 C56.8157579,9.48468085 54.5191585,6.46778723 50.5027493,4.89668085 C46.6750836,3.45221277 42.0858444,3.40868085 37.8146974,3.40868085 L30.5447723,3.40868085 L30.5447723,35.4428936 L36.5396888,35.4428936 L36.5396888,21.8899574 L39.0237118,21.8899574 L53.1794755,35.4428936 L60.4494006,35.4428936 L45.2746859,21.5074043 Z M36.5396888,6.97697872 L38.1314697,6.97697872 C44.0617118,6.97697872 51.204928,7.69987234 51.204928,12.7126383 C51.204928,17.8111489 44.5725072,18.5749362 38.449562,18.5749362 L36.5396888,18.5749362 L36.5396888,6.97697872 L36.5396888,6.97697872 Z" id="Fill-4" fill="#FFFFFF"></path>
                            <path d="M36.5396888,18.9482553 L38.449562,18.9482553 C44.563268,18.9482553 51.5771354,18.2398723 51.5771354,12.7126383 C51.5771354,7.23817021 43.9033256,6.60497872 38.1314697,6.60497872 L36.1635216,6.60497872 L36.1635216,18.9482553 L36.5396888,18.9482553 Z M36.5396888,7.35161702 L38.1314697,7.35161702 C46.7951931,7.35161702 50.8314006,9.0546383 50.8314006,12.7126383 C50.8314006,17.5789787 44.2121787,18.201617 38.449562,18.201617 L36.5396888,18.201617 L36.9118963,18.5749362 L36.9118963,6.97697872 L36.5396888,7.35161702 L36.5396888,7.35161702 Z" id="Fill-5" fill="#FFFFFF"></path>
                            <path d="M60.4494006,35.0682553 L53.1794755,35.0682553 L53.4394928,35.1737872 L39.285049,21.6195319 L39.1728588,21.5166383 L36.1635216,21.5166383 L36.1635216,35.4428936 L36.5396888,35.0682553 L30.5447723,35.0682553 L30.9182997,35.4428936 L30.9182997,3.40868085 L30.5447723,3.78331915 L37.8146974,3.78331915 C41.6832795,3.78331915 46.4955793,3.78331915 50.3694409,5.24493617 C54.1139539,6.70919149 56.4435504,9.50578723 56.4435504,12.5437872 C56.4435504,17.0790213 51.8371527,20.610383 45.2443285,21.1367234 L44.391683,21.2026809 L45.0199481,21.7817872 L60.1933429,35.7172766 L60.4494006,35.0682553 Z M45.3037233,21.8794043 C52.3004323,21.3227234 57.1892853,17.484 57.1892853,12.5437872 C57.1892853,9.19314894 54.6801844,6.12876596 50.6386974,4.55106383 C46.6302075,3.0353617 41.7413545,3.0353617 37.8146974,3.0353617 L30.171245,3.0353617 L30.171245,35.8148936 L36.9118963,35.8148936 L36.9118963,21.8899574 L36.5396888,22.2619574 L39.0237118,22.2619574 L38.7636945,22.1590638 L52.9194582,35.7106809 L53.0329683,35.8148936 L61.4049971,35.8148936 L60.7028184,35.1685106 L45.5281037,21.2330213 L45.3037233,21.8794043 L45.3037233,21.8794043 Z" id="Fill-6" fill="#FFFFFF"></path>
                            <polyline id="Fill-7" fill="#FFFFFF" points="107.007014 35.4428936 113.001931 35.4428936 113.001931 11.567617 149.090219 36.7620426 149.090219 3.40868085 143.096622 3.40868085 143.096622 27.0742128 107.007014 1.87978723 107.007014 35.4428936"></polyline>
                            <path d="M106.794513,2.18714894 L142.882801,27.3789362 L143.47015,27.7891915 L143.47015,3.40868085 L143.096622,3.78331915 L149.090219,3.78331915 L148.716692,3.40868085 L148.716692,36.7620426 L149.30272,36.4546809 L113.213112,11.2615745 L112.627084,10.85 L112.627084,35.4428936 L113.001931,35.0682553 L107.007014,35.0682553 L107.380542,35.4428936 L107.380542,1.87978723 L106.794513,2.18714894 Z M107.007014,35.8148936 L113.374138,35.8148936 L113.374138,11.567617 L112.78811,11.8723404 L148.877718,37.066766 L149.463746,37.4783404 L149.463746,3.0353617 L142.723095,3.0353617 L142.723095,27.0742128 L143.309124,26.7668511 L107.220836,1.57374468 L106.634807,1.16348936 L106.634807,35.8148936 L107.007014,35.8148936 L107.007014,35.8148936 Z" id="Fill-8" fill="#FFFFFF"></path>
                            <path d="M193.060859,4.89668085 C189.424576,3.40868085 185.154749,2.7306383 180.944317,2.7306383 C166.791193,2.7306383 155.37815,10.1218298 155.37815,19.5946383 C155.37815,28.856383 166.726519,36.1182979 180.433522,36.1182979 C184.645274,36.1182979 189.362542,35.3149362 193.060859,33.8665106 L193.060859,29.1545106 C189.487931,31.2783404 184.963366,32.4668936 180.244778,32.4668936 C169.531274,32.4668936 161.369107,26.4779574 161.369107,19.4693191 C161.369107,12.3722979 169.594628,6.38204255 180.371487,6.38204255 C184.898692,6.38204255 189.61596,7.48748936 193.060859,9.52689362 L193.060859,4.89668085" id="Fill-9" fill="#FFFFFF"></path>
                            <path d="M193.249602,9.20634043 C189.820542,7.17485106 185.125712,6.01004255 180.371487,6.01004255 C169.68834,6.01004255 160.995579,12.0477872 160.995579,19.4693191 C160.995579,26.8433617 169.630265,32.8415319 180.244778,32.8415319 C184.979205,32.8415319 189.598801,31.646383 193.249602,29.4750638 L192.686012,29.1545106 L192.686012,33.8665106 L192.923591,33.5208936 C189.362542,34.915234 184.69147,35.7462979 180.433522,35.7462979 C166.82419,35.7462979 155.751677,28.5002128 155.751677,19.5946383 C155.751677,10.3460851 166.817591,3.1026383 180.944317,3.1026383 C185.356692,3.1026383 189.49717,3.84268085 192.916991,5.24229787 L192.686012,4.89668085 L192.686012,9.52689362 L193.249602,9.20634043 Z M193.200767,4.55106383 C189.692513,3.11451064 185.451723,2.35731915 180.944317,2.35731915 C166.396548,2.35731915 155.004622,9.92791489 155.004622,19.5946383 C155.004622,28.9131064 166.411066,36.4929362 180.433522,36.4929362 C184.781222,36.4929362 189.552605,35.640766 193.196807,34.214766 L193.434386,34.1211064 L193.434386,28.4988936 L192.870795,28.8339574 C189.329545,30.9366809 184.848536,32.0948936 180.244778,32.0948936 C170.042069,32.0948936 161.742634,26.4317872 161.742634,19.4693191 C161.742634,12.4606809 170.100144,6.75668085 180.371487,6.75668085 C184.926409,6.75668085 189.598801,7.91225532 192.870795,9.84744681 L193.434386,10.1811915 L193.434386,4.64604255 L193.200767,4.55106383 L193.200767,4.55106383 Z" id="Fill-10" fill="#FFFFFF"></path>
                            <polygon id="Fill-11" fill="#FFFFFF" points="203.908991 35.4415745 209.902588 35.4415745 209.902588 3.40868085 203.908991 3.40868085"></polygon>
                            <path d="M209.902588,35.0682553 L203.908991,35.0682553 L204.282519,35.4428936 L204.282519,3.40868085 L203.908991,3.78331915 L209.902588,3.78331915 L209.53038,3.40868085 L209.53038,35.4428936 L209.902588,35.0682553 Z M209.902588,3.0353617 L203.535464,3.0353617 L203.535464,35.8148936 L210.276115,35.8148936 L210.276115,3.0353617 L209.902588,3.0353617 L209.902588,3.0353617 Z" id="Fill-12" fill="#FFFFFF"></path>
                            <path d="M246.182259,7.57323404 C243.566248,4.47191489 239.165752,2.7306383 233.8123,2.7306383 C226.543695,2.7306383 219.656536,5.8306383 219.656536,11.0148936 C219.656536,15.4749362 224.631182,17.555234 230.113983,19.1276596 L233.428213,20.0629362 C237.572651,21.2105957 241.717089,22.6972766 241.717089,26.137617 C241.717089,29.4935319 238.018772,32.3824681 232.855383,32.3824681 C227.689354,32.3824681 223.481562,29.8351915 223.544916,26.3091064 L217.486646,27.1573191 C218.509556,32.2993617 224.567827,36.1182979 232.343268,36.1182979 C240.952876,36.1182979 247.710686,31.9577021 247.710686,26.137617 C247.710686,20.7858298 242.610651,18.2794468 235.786847,16.4933191 L232.343268,15.6015745 C229.34713,14.8377872 225.650133,13.5199574 225.650133,11.0148936 C225.650133,8.21038298 229.856605,6.46778723 233.682951,6.46778723 C237.319233,6.46778723 239.611873,7.48748936 241.398997,9.48468085 L246.182259,7.57323404" id="Fill-13" fill="#FFFFFF"></path>
                            <path d="M241.676173,9.23404255 C239.733303,7.0627234 237.267758,6.09446809 233.682951,6.09446809 C229.638824,6.09446809 225.276605,7.97425532 225.276605,11.0148936 C225.276605,13.8550213 229.256058,15.199234 232.252196,15.9630213 C232.250876,15.9630213 235.693135,16.8560851 235.693135,16.8560851 C243.853983,18.9917872 247.337159,21.7672766 247.337159,26.137617 C247.337159,31.6147234 240.890841,35.7462979 232.343268,35.7462979 C224.946634,35.7462979 218.851406,32.1028085 217.854893,27.0860851 L217.539441,27.528 L223.597712,26.6784681 L223.172709,26.3011915 C223.148951,27.6203404 223.680865,28.8682553 224.707735,29.9169787 C226.453942,31.6951915 229.500236,32.7571064 232.855383,32.7571064 C238.033291,32.7571064 242.090617,29.848383 242.090617,26.137617 C242.090617,22.3872766 237.670323,20.8491489 233.528524,19.7028085 C233.532484,19.7041277 230.216934,18.7688511 230.216934,18.7688511 C224.925516,17.2531489 220.028744,15.2625532 220.028744,11.0148936 C220.028744,5.87548936 227.129723,3.1026383 233.8123,3.1026383 C239.041683,3.1026383 243.333948,4.7766383 245.895844,7.81331915 L246.042352,7.22629787 L241.260409,9.13642553 L241.676173,9.23404255 Z M246.467354,7.33182979 C243.761591,4.12365957 239.266063,2.35731915 233.8123,2.35731915 C226.768075,2.35731915 219.283009,5.3913617 219.283009,11.0148936 C219.283009,15.757234 224.438478,17.8876596 230.011032,19.4864681 L233.326582,20.4217447 C237.207043,21.4968511 241.343562,22.9122979 241.343562,26.137617 C241.343562,29.4302128 237.613568,32.0104681 232.855383,32.0104681 C229.696899,32.0104681 226.852548,31.0303404 225.240968,29.3959149 C224.356646,28.493617 223.898646,27.4264255 223.918444,26.3157021 L223.927683,25.8790638 L223.493441,25.9384255 L217.43517,26.7879574 L217.044484,26.8433617 L217.119718,27.2311915 C218.204663,32.6845532 224.463556,36.4929362 232.343268,36.4929362 C241.317164,36.4929362 248.084213,32.0408085 248.084213,26.137617 C248.084213,20.1341702 241.915072,17.7108936 235.881879,16.1331915 C235.880559,16.1331915 232.43698,15.2401277 232.43698,15.2401277 C228.120957,14.1386383 226.02234,12.7574894 226.02234,11.0148936 C226.02234,8.51774468 229.983314,6.84110638 233.682951,6.84110638 C237.038098,6.84110638 239.330738,7.73285106 241.120501,9.734 L241.294726,9.92791489 L241.537585,9.83161702 L246.319527,7.92017021 L246.799965,7.72757447 L246.467354,7.33182979 L246.467354,7.33182979 Z" id="Fill-14" fill="#FFFFFF"></path>
                            <polyline id="Fill-15" fill="#FFFFFF" points="96.0493314 35.2925106 102.615758 35.2925106 81.7008646 1.56319149 60.8519654 35.2925106 67.4197118 35.2925106 81.7008646 11.5874043 96.0493314 35.2925106"></polyline>
                            <path d="M81.3801326,11.3948085 L67.0989798,35.101234 L67.4197118,34.9205106 L60.8519654,34.9205106 L61.1700576,35.4890638 L82.0202767,1.75974468 L81.3827723,1.75974468 L102.297666,35.4890638 L102.615758,34.9205106 L96.0493314,34.9205106 L96.3713833,35.101234 L82.0229164,11.3934894 L81.7008646,10.8658298 L81.3801326,11.3948085 Z M96.0493314,35.6684681 L103.287579,35.6684681 L82.0202767,1.3666383 L81.7008646,0.853489362 L81.3827723,1.3666383 L60.5325533,35.0985957 L60.1801441,35.6684681 L67.6295735,35.6684681 L67.7404438,35.4864255 L82.0229164,11.78 L81.3801326,11.7813191 L95.7285994,35.4864255 L95.8394697,35.6684681 L96.0493314,35.6684681 L96.0493314,35.6684681 Z" id="Fill-16" fill="#FFFFFF"></path>
                            <polyline id="Fill-17" fill="#FFFFFF" points="205.956133 49.6395745 205.956133 61.5620426 202.304012 61.5620426 202.304012 49.6395745 198.137135 49.6395745 198.137135 47.0012766 210.121689 47.0012766 210.121689 49.6395745 205.956133 49.6395745"></polyline>
                            <g id="Group-21" transform="translate(212.501441, 46.170213)">
                                <mask id="mask-2" fill="white">
                                    <use xlink:href="#path-1"></use>
                                </mask>
                                <g id="Clip-19"></g>
                                <polyline id="Fill-18" fill="#FFFFFF" mask="url(#mask-2)" points="0.00263976945 15.3918298 0.00263976945 0.83106383 10.0258444 0.83106383 10.0258444 3.4693617 3.65344092 3.4693617 3.65344092 6.46251064 10.0258444 6.46251064 10.0258444 9.10608511 3.65344092 9.10608511 3.65344092 12.7495745 10.0258444 12.7495745 10.0258444 15.3918298 0.00263976945 15.3918298"></polyline>
                                <path d="M27.2806974,4.61306383 C26.5442017,4.04846809 25.7892277,3.63557447 25.0131354,3.37438298 C24.239683,3.11055319 23.4107954,2.97995745 22.5264726,2.97995745 C20.7142709,2.97995745 19.270317,3.44825532 18.1932911,4.37429787 C17.117585,5.30034043 16.5803919,6.54957447 16.5803919,8.11276596 C16.5803919,9.64297872 17.0779885,10.8605532 18.0758213,11.7588936 C19.0776138,12.657234 20.4397349,13.1057447 22.167464,13.1057447 C23.1507781,13.1057447 24.0641383,12.9659149 24.9075447,12.6862553 C25.7522709,12.4026383 26.5336427,11.9791915 27.2542997,11.4211915 L27.2305418,14.6108936 C26.4570893,15.0013617 25.6466801,15.2928936 24.800634,15.4854894 C23.9506282,15.676766 23.0583862,15.7717447 22.1239078,15.7717447 C19.4141844,15.7717447 17.1888588,15.0541277 15.4532104,13.6109787 C13.717562,12.1665106 12.8477579,10.3342128 12.8477579,8.11276596 C12.8477579,5.90319149 13.7215216,4.07221277 15.4624496,2.63565957 C17.2046974,1.19514894 19.4511412,0.478851064 22.1991412,0.478851064 C23.1230605,0.478851064 24.0113429,0.558 24.8732277,0.721574468 C25.7337925,0.891744681 26.5798386,1.14502128 27.4166455,1.488 L27.2806974,4.61306383" id="Fill-20" fill="#FFFFFF" mask="url(#mask-2)"></path>
                            </g>
                            <polyline id="Fill-22" fill="#FFFFFF" points="243.161043 61.5620426 243.161043 47.0012766 246.811844 47.0012766 246.811844 52.8253191 254.164922 52.8266383 254.164922 47.0025957 257.813084 47.0025957 257.813084 61.5633617 254.164922 61.5633617 254.164922 55.4688936 246.811844 55.4675745 246.811844 61.5620426 243.161043 61.5620426"></polyline>
                            <g id="Group-33" transform="translate(261.337176, 46.170213)">
                                <mask id="mask-4" fill="white">
                                    <use xlink:href="#path-3"></use>
                                </mask>
                                <g id="Clip-24"></g>
                                <path d="M0.260017291,15.3931489 L0.260017291,0.832382979 L4.03752738,0.832382979 L11.5687896,9.30395745 C11.7852507,9.5427234 12.02283,9.88042553 12.2802075,10.3157447 C12.5402248,10.7497447 12.8081614,11.2642128 13.0892968,11.851234 C13.0048242,11.4211915 12.9401499,10.9951064 12.9005533,10.5690213 C12.8635965,10.1429362 12.8424784,9.6126383 12.8424784,8.97812766 L12.8424784,0.832382979 L16.3309337,0.832382979 L16.3309337,15.3931489 L12.7619654,15.3931489 L5.02348127,6.7606383 C4.80834006,6.52187234 4.57076081,6.18285106 4.31470317,5.75017021 C4.05996542,5.31353191 3.78806916,4.79510638 3.50297406,4.19489362 C3.58744669,4.61174468 3.65212104,5.03387234 3.68907781,5.45995745 C3.72735447,5.89131915 3.74715274,6.42689362 3.74715274,7.07459574 L3.74715274,15.3931489 L0.260017291,15.3931489" id="Fill-23" fill="#FFFFFF" mask="url(#mask-4)"></path>
                                <path d="M37.5348818,8.13651064 C37.5348818,9.1812766 37.3065418,10.1640426 36.8538213,11.0914043 C36.4011009,12.0214043 35.7477579,12.8353191 34.8951124,13.5384255 C34.0121095,14.2613191 33.0169164,14.8114043 31.9068934,15.1965957 C30.8021499,15.5791489 29.65517,15.7730638 28.4659539,15.7730638 C27.4311643,15.7730638 26.4135331,15.624 25.4183401,15.323234 C24.423147,15.0198298 23.5097867,14.5884681 22.6808991,14.0225532 C21.6131124,13.2930638 20.7921441,12.4237447 20.2232738,11.408 C19.6544035,10.3948936 19.3693084,9.30395745 19.3693084,8.13651064 C19.3693084,7.09174468 19.5936888,6.11029787 20.0437695,5.19085106 C20.4912104,4.27404255 21.1511527,3.45880851 22.018317,2.74251064 C22.8709625,2.02885106 23.8595562,1.4827234 24.9893775,1.08961702 C26.1152392,0.699148936 27.2767378,0.503914894 28.4659539,0.503914894 C29.65517,0.503914894 30.8074294,0.699148936 31.9253718,1.08961702 C33.0459539,1.4827234 34.0345476,2.02885106 34.8951124,2.74251064 C35.7569971,3.45880851 36.4103401,4.27404255 36.8604207,5.19744681 C37.3091816,6.11953191 37.5348818,7.09965957 37.5348818,8.13651064 Z M28.4659539,12.9949362 C30.0128588,12.9949362 31.2878674,12.5345532 32.2962594,11.6137872 C33.2993718,10.6890638 33.800928,9.53085106 33.800928,8.14046809 C33.800928,6.7632766 33.2940922,5.60638298 32.2751412,4.66319149 C31.2601499,3.72 29.9904207,3.25565957 28.4659539,3.25565957 C26.9230086,3.25565957 25.6427205,3.72 24.6237695,4.65923404 C23.6087781,5.59714894 23.1006225,6.75404255 23.1006225,8.14046809 C23.1006225,9.5427234 23.5995389,10.7022553 24.6000115,11.6217021 C25.6031239,12.5398298 26.8913314,12.9949362 28.4659539,12.9949362 L28.4659539,12.9949362 Z" id="Fill-25" fill="#FFFFFF" mask="url(#mask-4)"></path>
                                <polyline id="Fill-26" fill="#FFFFFF" mask="url(#mask-4)" points="40.5864553 15.3931489 40.5864553 0.832382979 44.2346167 0.832382979 44.2346167 12.7508936 50.0341902 12.7508936 50.0341902 15.3931489 40.5864553 15.3931489"></polyline>
                                <path d="M68.9006225,8.13651064 C68.9006225,9.1812766 68.6722824,10.1640426 68.2222017,11.0914043 C67.7681614,12.0214043 67.1148184,12.8353191 66.2621729,13.5384255 C65.37917,14.2613191 64.3826571,14.8114043 63.2739539,15.1965957 C62.1692104,15.5791489 61.0209107,15.7730638 59.8330144,15.7730638 C58.7982248,15.7730638 57.7792738,15.624 56.7840807,15.323234 C55.7902075,15.0198298 54.8755274,14.5884681 54.0466398,14.0225532 C52.9801729,13.2930638 52.1592046,12.4237447 51.5903343,11.408 C51.0175043,10.3948936 50.735049,9.30395745 50.735049,8.13651064 C50.735049,7.09174468 50.9594294,6.11029787 51.4095101,5.19085106 C51.8582709,4.27404255 52.5182133,3.45880851 53.3853775,2.74251064 C54.2380231,2.02885106 55.2266167,1.4827234 56.3551182,1.08961702 C57.4822997,0.699148936 58.6437983,0.503914894 59.8330144,0.503914894 C61.0209107,0.503914894 62.1744899,0.699148936 63.2911124,1.08961702 C64.4130144,1.4827234 65.402928,2.02885106 66.2621729,2.74251064 C67.1227378,3.45880851 67.7774006,4.27404255 68.2261614,5.19744681 C68.6749222,6.11953191 68.9006225,7.09965957 68.9006225,8.13651064 Z M59.8330144,12.9949362 C61.3799193,12.9949362 62.6562478,12.5345532 63.6593602,11.6137872 C64.6664323,10.6890638 65.1679885,9.53085106 65.1679885,8.14046809 C65.1679885,6.7632766 64.6598329,5.60638298 63.6422017,4.66319149 C62.6258905,3.72 61.3561614,3.25565957 59.8330144,3.25565957 C58.2900692,3.25565957 57.0084611,3.72 55.99083,4.65923404 C54.9745187,5.59714894 54.467683,6.75404255 54.467683,8.14046809 C54.467683,9.5427234 54.9679193,10.7022553 55.967072,11.6217021 C56.9715043,12.5398298 58.2583919,12.9949362 59.8330144,12.9949362 L59.8330144,12.9949362 Z" id="Fill-27" fill="#FFFFFF" mask="url(#mask-4)"></path>
                                <path d="M80.3941787,7.71834043 L88.1485014,7.71834043 C88.1630202,7.80540426 88.1748991,7.89774468 88.1788588,7.998 C88.1814986,8.09561702 88.1841383,8.24731915 88.1841383,8.45178723 C88.1841383,10.6323404 87.4542421,12.3947234 85.9984092,13.7481702 C84.5412565,15.0989787 82.6564611,15.7730638 80.3493026,15.7730638 C77.7042536,15.7730638 75.5251239,15.0541277 73.8145533,13.6109787 C72.0987032,12.1704681 71.2434179,10.3394894 71.2434179,8.11804255 C71.2434179,5.91902128 72.1053026,4.09991489 73.8264323,2.6607234 C75.5449222,1.22417021 77.722732,0.503914894 80.3519424,0.503914894 C81.7378213,0.503914894 83.0101902,0.751914894 84.1664092,1.25055319 C85.3213084,1.74919149 86.3521383,2.49714894 87.2588991,3.48651064 L84.7959942,5.022 C84.1822478,4.37957447 83.5381441,3.91391489 82.863683,3.62765957 C82.1905418,3.3427234 81.4078501,3.19893617 80.5261671,3.19893617 C78.8419942,3.19893617 77.4983516,3.64612766 76.4873199,4.53787234 C75.478928,5.42961702 74.9773718,6.62344681 74.9773718,8.1167234 C74.9773718,9.58361702 75.4815677,10.7668936 76.4939193,11.6731489 C77.5062709,12.5754468 78.8248357,13.0252766 80.4535735,13.0252766 C81.649389,13.0252766 82.6195043,12.7851915 83.3625994,12.3063404 C84.1083343,11.8288085 84.4805418,11.2048511 84.4805418,10.4357872 L84.4805418,10.2761702 L80.3941787,10.2761702 L80.3941787,7.71834043" id="Fill-28" fill="#FFFFFF" mask="url(#mask-4)"></path>
                                <path d="M94.130219,15.3931489 L94.130219,8.74991489 L88.3544035,0.832382979 L92.6347896,0.832382979 L95.1557695,4.81753191 C95.2811585,5.02068085 95.4091873,5.26868085 95.5411758,5.5747234 C95.6705245,5.87812766 95.8091124,6.23165957 95.9477003,6.6287234 C96.0559308,6.28970213 96.18,5.97310638 96.3159481,5.67629787 C96.4532161,5.37817021 96.6050029,5.08531915 96.7779078,4.80038298 L99.2883285,0.832382979 L103.552876,0.832382979 L97.7783804,8.74991489 L97.7783804,15.3931489 L94.130219,15.3931489" id="Fill-29" fill="#FFFFFF" mask="url(#mask-4)"></path>
                                <path d="M125.456363,3.49970213 C124.612957,2.87574468 123.749752,2.418 122.865429,2.11987234 C121.981107,1.82306383 121.053228,1.674 120.079153,1.674 C117.876265,1.674 116.089141,2.26893617 114.715141,3.46408511 C113.338501,4.65395745 112.653481,6.20659574 112.653481,8.11804255 C112.653481,9.08102128 112.821107,9.94506383 113.156357,10.7154468 C113.494248,11.4818723 114.009003,12.1638723 114.697983,12.762766 C115.380363,13.3458298 116.160415,13.7890638 117.040778,14.0924681 C117.919821,14.3945532 118.864859,14.5462553 119.870611,14.5462553 C120.847326,14.5462553 121.800282,14.4077447 122.730801,14.1201702 C123.66132,13.8391915 124.540363,13.4157447 125.369251,12.860383 L125.369251,14.4090638 C124.532444,14.8483404 123.648121,15.1834043 122.713643,15.4208511 C121.780484,15.6543404 120.853925,15.7730638 119.941885,15.7730638 C118.710432,15.7730638 117.530455,15.5844255 116.407233,15.2058298 C115.284012,14.8298723 114.317856,14.2995745 113.512726,13.6162553 C112.685159,12.9144681 112.058213,12.0979149 111.627931,11.1705532 C111.201608,10.2431915 110.989107,9.22744681 110.989107,8.11804255 C110.989107,7.03502128 111.206888,6.0192766 111.645089,5.07740426 C112.083291,4.13553191 112.712876,3.32557447 113.536484,2.64225532 C114.332375,1.97080851 115.29589,1.44710638 116.423072,1.07114894 C117.548934,0.69387234 118.722311,0.503914894 119.935285,0.503914894 C121.020231,0.503914894 122.024663,0.63187234 122.952542,0.887787234 C123.876461,1.14370213 124.718548,1.52889362 125.478801,2.04204255 L125.456363,3.49970213" id="Fill-30" fill="#FFFFFF" mask="url(#mask-4)"></path>
                                <polyline id="Fill-31" fill="#FFFFFF" mask="url(#mask-4)" points="129.410738 15.3931489 129.410738 0.832382979 137.826323 0.832382979 137.826323 2.08293617 130.964242 2.08293617 130.964242 6.62476596 137.826323 6.62476596 137.826323 7.88059574 130.964242 7.88059574 130.964242 14.1386383 137.826323 14.1386383 137.826323 15.3931489 129.410738 15.3931489"></polyline>
                                <polyline id="Fill-32" fill="#FFFFFF" mask="url(#mask-4)" points="142.216259 15.3931489 142.216259 0.204468085 154.253608 12.4 154.253608 0.832382979 155.694922 0.832382979 155.694922 15.8297872 143.657573 3.61578723 143.657573 15.3931489 142.216259 15.3931489"></polyline>
                            </g>
                            <polyline id="Fill-34" fill="#FFFFFF" points="424.868254 61.5633617 424.868254 48.2531489 420.186622 48.2531489 420.186622 47.0025957 431.106029 47.0025957 431.106029 48.2531489 426.421758 48.2531489 426.421758 61.5633617 424.868254 61.5633617"></polyline>
                            <polyline id="Fill-35" fill="#FFFFFF" points="434.29619 61.5633617 434.29619 47.0025957 442.710455 47.0025957 442.710455 48.2531489 435.848375 48.2531489 435.848375 52.7949787 442.710455 52.7949787 442.710455 54.0508085 435.848375 54.0508085 435.848375 60.3088511 442.710455 60.3088511 442.710455 61.5633617 434.29619 61.5633617"></polyline>
                            <path d="M457.419251,61.5633617 L455.539735,61.5633617 L449.580455,54.622 L448.652576,54.622 L448.652576,61.5633617 L447.099072,61.5633617 L447.099072,47.0025957 L450.229839,47.0025957 C452.069758,47.0025957 453.446398,47.3297447 454.359758,47.9840426 C455.277078,48.643617 455.733758,49.6382553 455.733758,50.9705957 C455.733758,52.106383 455.340432,52.9968085 454.559061,53.6471489 C453.773729,54.2961702 452.696703,54.622 451.321383,54.622 L457.419251,61.5633617 Z M448.652576,48.1436596 L448.652576,53.5310638 L450.207401,53.5310638 C451.647395,53.5310638 452.650507,53.3358298 453.219378,52.9414043 C453.788248,52.5456596 454.070703,51.8742128 454.070703,50.9231064 C454.070703,49.9218723 453.779009,49.2068936 453.18902,48.7821277 C452.602991,48.3573617 451.607798,48.1436596 450.207401,48.1436596 L448.652576,48.1436596 L448.652576,48.1436596 Z" id="Fill-36" fill="#FFFFFF"></path>
                        </g>
                    </g>
                </g>
            </g>
        </g>
    </g>
</svg>